<?xml version="1.0" encoding="UTF-8" standalone="no"?>
<svg
   viewBox="0 0 13.332464 11.8372"
   class="_1O4jTk-dZ-VIxsCuYB6OR8 "
   version="1.1"
   id="svg8"
   width="13.332464"
   height="11.8372"
   xmlns="http://www.w3.org/2000/svg"
   xmlns:svg="http://www.w3.org/2000/svg"
   xmlns:rdf="http://www.w3.org/1999/02/22-rdf-syntax-ns#"
   xmlns:cc="http://creativecommons.org/ns#"
   xmlns:dc="http://purl.org/dc/elements/1.1/">
  <title
     id="title823">Reddit Icon</title>
  <defs
     id="defs12" />
  <path
     fill="#ffffff"
     d="m 13.332289,6.0072008 a 1.4612949,1.46 0 0 0 -2.472191,-1 7.1263147,7.12 0 0 0 -3.8534147,-1.23 L 7.6572603,0.65720077 9.7991583,1.1072008 A 1.0008869,1 0 1 0 9.9292733,0.49720077 L 7.4771003,0.00720073 a 0.31027494,0.31 0 0 0 -0.370328,0.24 L 6.3661161,3.7172008 a 7.1463325,7.14 0 0 0 -3.9034589,1.23 1.4612949,1.46 0 1 0 -1.61142791,2.39 2.8725454,2.87 0 0 0 0,0.44 c 0,2.2399992 2.61231481,4.0599992 5.83517101,4.0599992 3.222855,0 5.8351697,-1.82 5.8351697,-4.0599992 a 2.8725454,2.87 0 0 0 0,-0.44 1.4612949,1.46 0 0 0 0.810719,-1.33 z m -10.0088691,1 a 1.0008869,1 0 1 1 1.0008869,1 1.0008869,1 0 0 1 -1.0008869,-1 z M 9.1385733,9.7572004 A 3.8434057,3.84 0 0 1 6.6663823,10.5272 3.8434057,3.84 0 0 1 4.1941915,9.7572004 0.27023946,0.27 0 0 1 4.5745285,9.3772008 3.2729002,3.27 0 0 0 6.6563733,10.0072 3.282909,3.28 0 0 0 8.7482273,9.3972008 0.27957733,0.27932959 0 1 1 9.1385733,9.7972004 Z m -0.18016,-1.7099996 a 1.0008869,1 0 1 1 1.000887,-1 1.0008869,1 0 0 1 -1.010896,1.04 z"
     id="path4"
     style="fill:#000000;stroke-width:1.00044" />
  <metadata
     id="metadata821">
    <rdf:RDF>
      <cc:Work
         rdf:about="">
        <dc:title>Reddit Icon</dc:title>
        <dc:identifier>reddit-icon</dc:identifier>
        <dc:publisher>
          <cc:Agent>
            <dc:title>Reddit</dc:title>
          </cc:Agent>
        </dc:publisher>
        <dc:source>https://www.reddit.com/</dc:source>
      </cc:Work>
    </rdf:RDF>
  </metadata>
</svg>
