<?xml version="1.0" encoding="UTF-8" standalone="no"?>
<svg xmlns:sodipodi="http://sodipodi.sourceforge.net/DTD/sodipodi-0.dtd" xmlns="http://www.w3.org/2000/svg" xmlns:svg="http://www.w3.org/2000/svg" class="w-6 h-6 text-gray-800 dark:text-white" aria-hidden="true" width="24" height="24" fill="none" viewBox="0 0 24 24" version="1.1" id="svg1" sodipodi:docname="user-group.svg">
   <defs id="defs1"/>
   <sodipodi:namedview id="namedview1" pagecolor="#ffffff" bordercolor="#000000" borderopacity="0.25"/>
   <path stroke="#000000" stroke-linecap="round" stroke-width="2" d="M 3.75,17.494672 H 3.2 a 1.1,1.1 0 0 1 -1.1,-1.1 3.3,3.3 0 0 1 3.3,-3.3 h 1.1 m 0,-3.355 A 2.75,2.75 0 1 1 8.7,4.8446723 M 20.25,17.494672 h 0.55 a 1.1,1.1 0 0 0 1.1,-1.1 3.3,3.3 0 0 0 -3.3,-3.3 h -1.1 m 0,-3.355 A 2.75,2.75 0 1 0 15.3,4.8446723 m 0.55,14.8499997 h -7.7 a 1.1,1.1 0 0 1 -1.1,-1.1 3.3,3.3 0 0 1 3.3,-3.3 h 3.3 a 3.3,3.3 0 0 1 3.3,3.3 1.1,1.1 0 0 1 -1.1,1.1 z m -1.1,-10.45 a 2.75,2.75 0 1 1 -5.5,0 2.75,2.75 0 0 1 5.5,0 z" id="path1"/>
</svg>
