<?xml version="1.0" encoding="UTF-8" standalone="no"?>
<svg xmlns:sodipodi="http://sodipodi.sourceforge.net/DTD/sodipodi-0.dtd" xmlns="http://www.w3.org/2000/svg" xmlns:svg="http://www.w3.org/2000/svg" class="w-6 h-6 text-gray-800 dark:text-white" aria-hidden="true" width="24" height="24" fill="none" viewBox="0 0 24 24" version="1.1" id="svg1" sodipodi:docname="user-circle.svg">
   <defs id="defs1"/>
   <sodipodi:namedview id="namedview1" pagecolor="#ffffff" bordercolor="#000000" borderopacity="0.25"/>
   <path stroke="#000000" stroke-linecap="round" stroke-linejoin="round" stroke-width="2.01835" d="m 11.999,21.990835 a 9.9908294,9.99083 0 1 0 0,-19.9816599 9.9908294,9.99083 0 0 0 0,19.9816599 z m 0,0 a 9.9342146,9.9342152 0 0 0 5.496067,-1.651816 4.4259373,4.4259376 0 0 0 -4.385975,-3.898644 H 10.888909 A 4.4259373,4.4259376 0 0 0 6.5029345,20.339019 9.9331045,9.9331051 0 0 0 11.999,21.990835 Z M 15.329277,9.7798202 a 3.3302765,3.3302767 0 1 1 -6.6605527,0 3.3302765,3.3302767 0 0 1 6.6605527,0 z" id="path1"/>
</svg>
